<svg xmlns="http://www.w3.org/2000/svg" width="134" height="235" fill="none" stroke="currentColor" style="shape-rendering:geometricPrecision;text-rendering:geometricPrecision;image-rendering:optimizeQuality;fill-rule:evenodd;clip-rule:evenodd"><path style="opacity:1" fill="#171716" d="M60.5 39.5c-1.325-1.453-2.158-1.12-2.5 1a8.434 8.434 0 0 1-.5-4h-4c-1.22 2.081-1.886 4.081-2 6-3.792.805-7.458 1.138-11 1a12.417 12.417 0 0 1-2.5-4c-.383.556-.883.89-1.5 1a41.986 41.986 0 0 1-1.5-9c6.14-3.987 12.64-7.32 19.5-10 .586.21 1.086.543 1.5 1a161.356 161.356 0 0 1 4.5 17z"/><path style="opacity:.999" fill="#0d0d0d" d="M60.5 39.5a170.925 170.925 0 0 1 5 15.5l-1 1.5a1659.87 1659.87 0 0 1-21.5 4c-.945-.405-1.612-1.072-2-2l-4.5-18c.617-.11 1.117-.444 1.5-1a12.417 12.417 0 0 0 2.5 4c3.542.138 7.208-.195 11-1 .114-1.919.78-3.919 2-6h4a8.434 8.434 0 0 0 .5 4c.342-2.12 1.175-2.453 2.5-1z"/><path style="opacity:.992" fill="#0f0f0e" d="M86.5 175.5c-.722.418-1.222 1.084-1.5 2-.368-1.41-1.201-2.41-2.5-3-1.09 1.515-2.424 2.348-4 2.5 1.426-2.711 1.092-5.211-1-7.5-1.867 1.297-2.2 2.797-1 4.5a13.756 13.756 0 0 0-2.5 5.5c-3.045-2.175-4.211-5.175-3.5-9h-4c.088 3.098-.412 3.432-1.5 1-.986 3.242-.152 5.908 2.5 8-1.11-.124-2.444.209-4 1a1642.121 1642.121 0 0 1-5.5-37l-1 1a2556.126 2556.126 0 0 1-11.5 70c-.722.418-1.222 1.084-1.5 2-2.167-3.665-3-7.665-2.5-12h4a87.203 87.203 0 0 1 2-12c-1.2-.792-2.533-.792-4 0-1.586.913-3.086.913-4.5 0a7.292 7.292 0 0 0-2 3c.046-1.813-.12-3.479-.5-5-4.002 3.003-6.168 7.003-6.5 12-.767-4.094-.434-8.094 1-12 .667-1.333 1.333-1.333 2 0 .318-1.561 1.15-2.728 2.5-3.5a34.86 34.86 0 0 0-3-6 109.16 109.16 0 0 0 1.5-12.5l1-1c.112 2.947 1.612 4.28 4.5 4-.17-1.322.163-2.489 1-3.5a11.357 11.357 0 0 1-1.5-3.5l-1 1c-1.117-2.915-3.117-4.915-6-6-1.131 1.104-1.965.771-2.5-1l1-2c-.346-1.196-.846-1.196-1.5 0-.5 19.664-.667 39.331-.5 59v13a84.9 84.9 0 0 0 13-.5 72.368 72.368 0 0 0-12-.5 18.437 18.437 0 0 1 .5-6c2.29.775 4.124-.058 5.5-2.5-1.61-1.495-3.276-1.661-5-.5-1.021-.502-1.188-1.168-.5-2a13.243 13.243 0 0 1 5-3c1 1.333 2 1.333 3 0 1.66 2.93 1.992 5.93 1 9a3.647 3.647 0 0 1 1.5-1l1 2a6.807 6.807 0 0 0 1.5-3 65.027 65.027 0 0 1-.5 9c-2.957 1.026-6.123 1.693-9.5 2-2.034.146-3.7-.52-5-2l-1-120a171.791 171.791 0 0 1-3.5 10c-.596-2.613-1.429-2.613-2.5 0-.093-2.507-.926-4.674-2.5-6.5 1.074-.739 1.74-1.739 2-3-2.708-1.399-3.374-3.399-2-6-1.549-4.818-2.882-9.985-4-15.5a10.253 10.253 0 0 0-1.5 4c-.278-.916-.778-1.582-1.5-2l4-26c23.002-.167 46.002 0 69 .5L97 79.5a82.748 82.748 0 0 0 2-18l-7-5c.238-2.562-.762-4.896-3-7-3.214 1.983-6.547 2.316-10 1a403.057 403.057 0 0 1-5.5-15 14.974 14.974 0 0 1 3-3.5c16.506-3.687 28.839-12.854 37-27.5.774-1.211 1.607-1.211 2.5 0a3121.636 3121.636 0 0 1 14.5 42c-.056 1.237-.556 2.237-1.5 3-9.578-4.422-19.411-5.088-29.5-2a10.939 10.939 0 0 0 3 4.5c3.198.849 6.031 2.349 8.5 4.5a734.126 734.126 0 0 1-1 50c-1.067 1.783-2.567 2.283-4.5 1.5a335.468 335.468 0 0 1-18-12.5 1600.89 1600.89 0 0 0-1 80z"/><path style="opacity:1" fill="#353630" d="M8.5 108.5v-1a42.504 42.504 0 0 0 5-1.5c-1.231-1.183-1.231-2.349 0-3.5 2.036 3.033 2.37 6.2 1 9.5 3.86.569 3.86 1.402 0 2.5 1.097 2.035 2.763 3.368 5 4-.508 2.404-1.674 3.071-3.5 2a25.648 25.648 0 0 1-2.5 7.5c-3.318.833-4.985-.501-5-4 .444-3.688 1.444-7.522 3-11.5-.315-1.983-1.315-3.316-3-4z"/><path style="opacity:.55" fill="#1a1b18" d="M23.5 119.5a498.244 498.244 0 0 1-9 37c-4.292.774-8.625.774-13 0l7-48c1.685.684 2.685 2.017 3 4-1.556 3.978-2.556 7.812-3 11.5.015 3.499 1.682 4.833 5 4a25.648 25.648 0 0 0 2.5-7.5c1.826 1.071 2.992.404 3.5-2-2.237-.632-3.903-1.965-5-4 3.86-1.098 3.86-1.931 0-2.5 1.37-3.3 1.036-6.467-1-9.5-1.231 1.151-1.231 2.317 0 3.5a42.504 42.504 0 0 1-5 1.5 174.324 174.324 0 0 0 3-17c.722.418 1.222 1.084 1.5 2a10.253 10.253 0 0 1 1.5-4c1.118 5.515 2.451 10.682 4 15.5-1.374 2.601-.708 4.601 2 6-.26 1.261-.926 2.261-2 3 1.574 1.826 2.407 3.993 2.5 6.5 1.071-2.613 1.904-2.613 2.5 0z"/><path style="opacity:.931" fill="#151514" d="M86.5 175.5a702.833 702.833 0 0 1-1 53 24.939 24.939 0 0 0-.5-7l-1 1c-.422-1.926-1.59-2.926-3.5-3v-6a8.43 8.43 0 0 0 4-.5 32.444 32.444 0 0 1-6-1.5c-1 1.333-2 1.333-3 0l-2 2a9.107 9.107 0 0 0-5-1v3a315.884 315.884 0 0 1-5-35c1.556-.791 2.89-1.124 4-1-2.652-2.092-3.486-4.758-2.5-8 1.088 2.432 1.588 2.098 1.5-1h4c-.711 3.825.455 6.825 3.5 9a13.756 13.756 0 0 1 2.5-5.5c-1.2-1.703-.867-3.203 1-4.5 2.092 2.289 2.426 4.789 1 7.5 1.576-.152 2.91-.985 4-2.5 1.299.59 2.132 1.59 2.5 3 .278-.916.778-1.582 1.5-2z"/><path style="opacity:.85" fill="#161614" d="M43.5 192.5c-1.135 1.713-2.802 2.38-5 2 .135 5.519-2.198 9.519-7 12a15.013 15.013 0 0 1 4 3.5 22.096 22.096 0 0 1-7 5.5c-.167-19.669 0-39.336.5-59 .654-1.196 1.154-1.196 1.5 0l-1 2c.535 1.771 1.369 2.104 2.5 1 2.883 1.085 4.883 3.085 6 6l1-1c.31 1.266.81 2.433 1.5 3.5-.837 1.011-1.17 2.178-1 3.5-2.888.28-4.388-1.053-4.5-4l-1 1a109.16 109.16 0 0 1-1.5 12.5 34.86 34.86 0 0 1 3 6c-1.35.772-2.182 1.939-2.5 3.5-.667-1.333-1.333-1.333-2 0-1.434 3.906-1.767 7.906-1 12 .332-4.997 2.498-8.997 6.5-12 .38 1.521.546 3.187.5 5a7.292 7.292 0 0 1 2-3c1.414.913 2.914.913 4.5 0z"/><path style="opacity:1" fill="#21221f" d="M45.5 214.5a120.956 120.956 0 0 1-1.5 13c-.278.916-.778 1.582-1.5 2 .377-3.025.544-6.025.5-9a6.807 6.807 0 0 1-1.5 3l-1-2a3.647 3.647 0 0 0-1.5 1c.992-3.07.66-6.07-1-9-1 1.333-2 1.333-3 0a13.243 13.243 0 0 0-5 3c-.688.832-.521 1.498.5 2 1.724-1.161 3.39-.995 5 .5-1.376 2.442-3.21 3.275-5.5 2.5a18.437 18.437 0 0 0-.5 6 72.368 72.368 0 0 1 12 .5 84.9 84.9 0 0 1-13 .5v-13a22.096 22.096 0 0 0 7-5.5 15.013 15.013 0 0 0-4-3.5c4.802-2.481 7.135-6.481 7-12 2.198.38 3.865-.287 5-2 1.467-.792 2.8-.792 4 0a87.203 87.203 0 0 0-2 12h-4c-.5 4.335.333 8.335 2.5 12 .278-.916.778-1.582 1.5-2z"/><path style="opacity:1" fill="#282723" d="M80.5 219.5c-.768.763-1.268 1.763-1.5 3-1.75-1.99-2.75-4.323-3-7-.703 3.239-1.703 5.905-3 8l-1-2c-.808 2.079-.641 4.079.5 6a46.755 46.755 0 0 0 13 1c.03.997-.47 1.664-1.5 2-12.698 3.139-17.865-1.861-15.5-15v-3a9.107 9.107 0 0 1 5 1l2-2c1 1.333 2 1.333 3 0a32.444 32.444 0 0 0 6 1.5 8.43 8.43 0 0 1-4 .5v6z"/><path style="opacity:1" fill="#41403b" d="M80.5 219.5c1.91.074 3.078 1.074 3.5 3l1-1c.497 2.31.663 4.643.5 7a46.755 46.755 0 0 1-13-1c-1.141-1.921-1.308-3.921-.5-6l1 2c1.297-2.095 2.297-4.761 3-8 .25 2.677 1.25 5.01 3 7 .232-1.237.732-2.237 1.5-3z"/></svg>